<?xml version="1.0" encoding="utf-8" standalone="no"?>
<!DOCTYPE svg PUBLIC "-//W3C//DTD SVG 1.1//EN"
  "http://www.w3.org/Graphics/SVG/1.1/DTD/svg11.dtd">
<!-- Created with matplotlib (http://matplotlib.org/) -->
<svg height="868pt" version="1.1" viewBox="0 0 1366 868" width="1366pt" xmlns="http://www.w3.org/2000/svg" xmlns:xlink="http://www.w3.org/1999/xlink">
 <defs>
  <style type="text/css">
*{stroke-linecap:butt;stroke-linejoin:round;}
  </style>
 </defs>
 <g id="figure_1">
  <g id="patch_1">
   <path d="M 0 868.32 
L 1366.56 868.32 
L 1366.56 0 
L 0 0 
z
" style="fill:#ffffff;"/>
  </g>
  <g id="axes_1">
   <g id="patch_2">
    <path d="M 170.82 772.8048 
L 1229.904 772.8048 
L 1229.904 104.1984 
L 170.82 104.1984 
z
" style="fill:#ffffff;"/>
   </g>
   <g id="matplotlib.axis_1">
    <g id="xtick_1">
     <g id="line2d_1">
      <path clip-path="url(#p54fed019a9)" d="M 218.960182 772.8048 
L 218.960182 104.1984 
" style="fill:none;stroke:#b0b0b0;stroke-linecap:square;stroke-width:0.8;"/>
     </g>
     <g id="line2d_2">
      <defs>
       <path d="M 0 0 
L 0 3.5 
" id="m199d3db56b" style="stroke:#000000;stroke-width:0.8;"/>
      </defs>
      <g>
       <use style="stroke:#000000;stroke-width:0.8;" x="218.960182" xlink:href="#m199d3db56b" y="772.8048"/>
      </g>
     </g>
     <g id="text_1">
      <!-- 0 -->
      <defs>
       <path d="M 31.78125 66.40625 
Q 24.171875 66.40625 20.328125 58.90625 
Q 16.5 51.421875 16.5 36.375 
Q 16.5 21.390625 20.328125 13.890625 
Q 24.171875 6.390625 31.78125 6.390625 
Q 39.453125 6.390625 43.28125 13.890625 
Q 47.125 21.390625 47.125 36.375 
Q 47.125 51.421875 43.28125 58.90625 
Q 39.453125 66.40625 31.78125 66.40625 
z
M 31.78125 74.21875 
Q 44.046875 74.21875 50.515625 64.515625 
Q 56.984375 54.828125 56.984375 36.375 
Q 56.984375 17.96875 50.515625 8.265625 
Q 44.046875 -1.421875 31.78125 -1.421875 
Q 19.53125 -1.421875 13.0625 8.265625 
Q 6.59375 17.96875 6.59375 36.375 
Q 6.59375 54.828125 13.0625 64.515625 
Q 19.53125 74.21875 31.78125 74.21875 
z
" id="DejaVuSans-30"/>
      </defs>
      <g transform="translate(212.597682 795.001675)scale(0.2 -0.2)">
       <use xlink:href="#DejaVuSans-30"/>
      </g>
     </g>
    </g>
    <g id="xtick_2">
     <g id="line2d_3">
      <path clip-path="url(#p54fed019a9)" d="M 413.465967 772.8048 
L 413.465967 104.1984 
" style="fill:none;stroke:#b0b0b0;stroke-linecap:square;stroke-width:0.8;"/>
     </g>
     <g id="line2d_4">
      <g>
       <use style="stroke:#000000;stroke-width:0.8;" x="413.465967" xlink:href="#m199d3db56b" y="772.8048"/>
      </g>
     </g>
     <g id="text_2">
      <!-- 20 -->
      <defs>
       <path d="M 19.1875 8.296875 
L 53.609375 8.296875 
L 53.609375 0 
L 7.328125 0 
L 7.328125 8.296875 
Q 12.9375 14.109375 22.625 23.890625 
Q 32.328125 33.6875 34.8125 36.53125 
Q 39.546875 41.84375 41.421875 45.53125 
Q 43.3125 49.21875 43.3125 52.78125 
Q 43.3125 58.59375 39.234375 62.25 
Q 35.15625 65.921875 28.609375 65.921875 
Q 23.96875 65.921875 18.8125 64.3125 
Q 13.671875 62.703125 7.8125 59.421875 
L 7.8125 69.390625 
Q 13.765625 71.78125 18.9375 73 
Q 24.125 74.21875 28.421875 74.21875 
Q 39.75 74.21875 46.484375 68.546875 
Q 53.21875 62.890625 53.21875 53.421875 
Q 53.21875 48.921875 51.53125 44.890625 
Q 49.859375 40.875 45.40625 35.40625 
Q 44.1875 33.984375 37.640625 27.21875 
Q 31.109375 20.453125 19.1875 8.296875 
z
" id="DejaVuSans-32"/>
      </defs>
      <g transform="translate(400.740967 795.001675)scale(0.2 -0.2)">
       <use xlink:href="#DejaVuSans-32"/>
       <use x="63.623047" xlink:href="#DejaVuSans-30"/>
      </g>
     </g>
    </g>
    <g id="xtick_3">
     <g id="line2d_5">
      <path clip-path="url(#p54fed019a9)" d="M 607.971752 772.8048 
L 607.971752 104.1984 
" style="fill:none;stroke:#b0b0b0;stroke-linecap:square;stroke-width:0.8;"/>
     </g>
     <g id="line2d_6">
      <g>
       <use style="stroke:#000000;stroke-width:0.8;" x="607.971752" xlink:href="#m199d3db56b" y="772.8048"/>
      </g>
     </g>
     <g id="text_3">
      <!-- 40 -->
      <defs>
       <path d="M 37.796875 64.3125 
L 12.890625 25.390625 
L 37.796875 25.390625 
z
M 35.203125 72.90625 
L 47.609375 72.90625 
L 47.609375 25.390625 
L 58.015625 25.390625 
L 58.015625 17.1875 
L 47.609375 17.1875 
L 47.609375 0 
L 37.796875 0 
L 37.796875 17.1875 
L 4.890625 17.1875 
L 4.890625 26.703125 
z
" id="DejaVuSans-34"/>
      </defs>
      <g transform="translate(595.246752 795.001675)scale(0.2 -0.2)">
       <use xlink:href="#DejaVuSans-34"/>
       <use x="63.623047" xlink:href="#DejaVuSans-30"/>
      </g>
     </g>
    </g>
    <g id="xtick_4">
     <g id="line2d_7">
      <path clip-path="url(#p54fed019a9)" d="M 802.477537 772.8048 
L 802.477537 104.1984 
" style="fill:none;stroke:#b0b0b0;stroke-linecap:square;stroke-width:0.8;"/>
     </g>
     <g id="line2d_8">
      <g>
       <use style="stroke:#000000;stroke-width:0.8;" x="802.477537" xlink:href="#m199d3db56b" y="772.8048"/>
      </g>
     </g>
     <g id="text_4">
      <!-- 60 -->
      <defs>
       <path d="M 33.015625 40.375 
Q 26.375 40.375 22.484375 35.828125 
Q 18.609375 31.296875 18.609375 23.390625 
Q 18.609375 15.53125 22.484375 10.953125 
Q 26.375 6.390625 33.015625 6.390625 
Q 39.65625 6.390625 43.53125 10.953125 
Q 47.40625 15.53125 47.40625 23.390625 
Q 47.40625 31.296875 43.53125 35.828125 
Q 39.65625 40.375 33.015625 40.375 
z
M 52.59375 71.296875 
L 52.59375 62.3125 
Q 48.875 64.0625 45.09375 64.984375 
Q 41.3125 65.921875 37.59375 65.921875 
Q 27.828125 65.921875 22.671875 59.328125 
Q 17.53125 52.734375 16.796875 39.40625 
Q 19.671875 43.65625 24.015625 45.921875 
Q 28.375 48.1875 33.59375 48.1875 
Q 44.578125 48.1875 50.953125 41.515625 
Q 57.328125 34.859375 57.328125 23.390625 
Q 57.328125 12.15625 50.6875 5.359375 
Q 44.046875 -1.421875 33.015625 -1.421875 
Q 20.359375 -1.421875 13.671875 8.265625 
Q 6.984375 17.96875 6.984375 36.375 
Q 6.984375 53.65625 15.1875 63.9375 
Q 23.390625 74.21875 37.203125 74.21875 
Q 40.921875 74.21875 44.703125 73.484375 
Q 48.484375 72.75 52.59375 71.296875 
z
" id="DejaVuSans-36"/>
      </defs>
      <g transform="translate(789.752537 795.001675)scale(0.2 -0.2)">
       <use xlink:href="#DejaVuSans-36"/>
       <use x="63.623047" xlink:href="#DejaVuSans-30"/>
      </g>
     </g>
    </g>
    <g id="xtick_5">
     <g id="line2d_9">
      <path clip-path="url(#p54fed019a9)" d="M 996.983322 772.8048 
L 996.983322 104.1984 
" style="fill:none;stroke:#b0b0b0;stroke-linecap:square;stroke-width:0.8;"/>
     </g>
     <g id="line2d_10">
      <g>
       <use style="stroke:#000000;stroke-width:0.8;" x="996.983322" xlink:href="#m199d3db56b" y="772.8048"/>
      </g>
     </g>
     <g id="text_5">
      <!-- 80 -->
      <defs>
       <path d="M 31.78125 34.625 
Q 24.75 34.625 20.71875 30.859375 
Q 16.703125 27.09375 16.703125 20.515625 
Q 16.703125 13.921875 20.71875 10.15625 
Q 24.75 6.390625 31.78125 6.390625 
Q 38.8125 6.390625 42.859375 10.171875 
Q 46.921875 13.96875 46.921875 20.515625 
Q 46.921875 27.09375 42.890625 30.859375 
Q 38.875 34.625 31.78125 34.625 
z
M 21.921875 38.8125 
Q 15.578125 40.375 12.03125 44.71875 
Q 8.5 49.078125 8.5 55.328125 
Q 8.5 64.0625 14.71875 69.140625 
Q 20.953125 74.21875 31.78125 74.21875 
Q 42.671875 74.21875 48.875 69.140625 
Q 55.078125 64.0625 55.078125 55.328125 
Q 55.078125 49.078125 51.53125 44.71875 
Q 48 40.375 41.703125 38.8125 
Q 48.828125 37.15625 52.796875 32.3125 
Q 56.78125 27.484375 56.78125 20.515625 
Q 56.78125 9.90625 50.3125 4.234375 
Q 43.84375 -1.421875 31.78125 -1.421875 
Q 19.734375 -1.421875 13.25 4.234375 
Q 6.78125 9.90625 6.78125 20.515625 
Q 6.78125 27.484375 10.78125 32.3125 
Q 14.796875 37.15625 21.921875 38.8125 
z
M 18.3125 54.390625 
Q 18.3125 48.734375 21.84375 45.5625 
Q 25.390625 42.390625 31.78125 42.390625 
Q 38.140625 42.390625 41.71875 45.5625 
Q 45.3125 48.734375 45.3125 54.390625 
Q 45.3125 60.0625 41.71875 63.234375 
Q 38.140625 66.40625 31.78125 66.40625 
Q 25.390625 66.40625 21.84375 63.234375 
Q 18.3125 60.0625 18.3125 54.390625 
z
" id="DejaVuSans-38"/>
      </defs>
      <g transform="translate(984.258322 795.001675)scale(0.2 -0.2)">
       <use xlink:href="#DejaVuSans-38"/>
       <use x="63.623047" xlink:href="#DejaVuSans-30"/>
      </g>
     </g>
    </g>
    <g id="xtick_6">
     <g id="line2d_11">
      <path clip-path="url(#p54fed019a9)" d="M 1191.489107 772.8048 
L 1191.489107 104.1984 
" style="fill:none;stroke:#b0b0b0;stroke-linecap:square;stroke-width:0.8;"/>
     </g>
     <g id="line2d_12">
      <g>
       <use style="stroke:#000000;stroke-width:0.8;" x="1191.489107" xlink:href="#m199d3db56b" y="772.8048"/>
      </g>
     </g>
     <g id="text_6">
      <!-- 100 -->
      <defs>
       <path d="M 12.40625 8.296875 
L 28.515625 8.296875 
L 28.515625 63.921875 
L 10.984375 60.40625 
L 10.984375 69.390625 
L 28.421875 72.90625 
L 38.28125 72.90625 
L 38.28125 8.296875 
L 54.390625 8.296875 
L 54.390625 0 
L 12.40625 0 
z
" id="DejaVuSans-31"/>
      </defs>
      <g transform="translate(1172.401607 795.001675)scale(0.2 -0.2)">
       <use xlink:href="#DejaVuSans-31"/>
       <use x="63.623047" xlink:href="#DejaVuSans-30"/>
       <use x="127.246094" xlink:href="#DejaVuSans-30"/>
      </g>
     </g>
    </g>
    <g id="text_7">
     <!-- Aquisition point index -->
     <defs>
      <path d="M 34.1875 63.1875 
L 20.796875 26.90625 
L 47.609375 26.90625 
z
M 28.609375 72.90625 
L 39.796875 72.90625 
L 67.578125 0 
L 57.328125 0 
L 50.6875 18.703125 
L 17.828125 18.703125 
L 11.1875 0 
L 0.78125 0 
z
" id="DejaVuSans-41"/>
      <path d="M 14.796875 27.296875 
Q 14.796875 17.390625 18.875 11.75 
Q 22.953125 6.109375 30.078125 6.109375 
Q 37.203125 6.109375 41.296875 11.75 
Q 45.40625 17.390625 45.40625 27.296875 
Q 45.40625 37.203125 41.296875 42.84375 
Q 37.203125 48.484375 30.078125 48.484375 
Q 22.953125 48.484375 18.875 42.84375 
Q 14.796875 37.203125 14.796875 27.296875 
z
M 45.40625 8.203125 
Q 42.578125 3.328125 38.25 0.953125 
Q 33.9375 -1.421875 27.875 -1.421875 
Q 17.96875 -1.421875 11.734375 6.484375 
Q 5.515625 14.40625 5.515625 27.296875 
Q 5.515625 40.1875 11.734375 48.09375 
Q 17.96875 56 27.875 56 
Q 33.9375 56 38.25 53.625 
Q 42.578125 51.265625 45.40625 46.390625 
L 45.40625 54.6875 
L 54.390625 54.6875 
L 54.390625 -20.796875 
L 45.40625 -20.796875 
z
" id="DejaVuSans-71"/>
      <path d="M 8.5 21.578125 
L 8.5 54.6875 
L 17.484375 54.6875 
L 17.484375 21.921875 
Q 17.484375 14.15625 20.5 10.265625 
Q 23.53125 6.390625 29.59375 6.390625 
Q 36.859375 6.390625 41.078125 11.03125 
Q 45.3125 15.671875 45.3125 23.6875 
L 45.3125 54.6875 
L 54.296875 54.6875 
L 54.296875 0 
L 45.3125 0 
L 45.3125 8.40625 
Q 42.046875 3.421875 37.71875 1 
Q 33.40625 -1.421875 27.6875 -1.421875 
Q 18.265625 -1.421875 13.375 4.4375 
Q 8.5 10.296875 8.5 21.578125 
z
M 31.109375 56 
z
" id="DejaVuSans-75"/>
      <path d="M 9.421875 54.6875 
L 18.40625 54.6875 
L 18.40625 0 
L 9.421875 0 
z
M 9.421875 75.984375 
L 18.40625 75.984375 
L 18.40625 64.59375 
L 9.421875 64.59375 
z
" id="DejaVuSans-69"/>
      <path d="M 44.28125 53.078125 
L 44.28125 44.578125 
Q 40.484375 46.53125 36.375 47.5 
Q 32.28125 48.484375 27.875 48.484375 
Q 21.1875 48.484375 17.84375 46.4375 
Q 14.5 44.390625 14.5 40.28125 
Q 14.5 37.15625 16.890625 35.375 
Q 19.28125 33.59375 26.515625 31.984375 
L 29.59375 31.296875 
Q 39.15625 29.25 43.1875 25.515625 
Q 47.21875 21.78125 47.21875 15.09375 
Q 47.21875 7.46875 41.1875 3.015625 
Q 35.15625 -1.421875 24.609375 -1.421875 
Q 20.21875 -1.421875 15.453125 -0.5625 
Q 10.6875 0.296875 5.421875 2 
L 5.421875 11.28125 
Q 10.40625 8.6875 15.234375 7.390625 
Q 20.0625 6.109375 24.8125 6.109375 
Q 31.15625 6.109375 34.5625 8.28125 
Q 37.984375 10.453125 37.984375 14.40625 
Q 37.984375 18.0625 35.515625 20.015625 
Q 33.0625 21.96875 24.703125 23.78125 
L 21.578125 24.515625 
Q 13.234375 26.265625 9.515625 29.90625 
Q 5.8125 33.546875 5.8125 39.890625 
Q 5.8125 47.609375 11.28125 51.796875 
Q 16.75 56 26.8125 56 
Q 31.78125 56 36.171875 55.265625 
Q 40.578125 54.546875 44.28125 53.078125 
z
" id="DejaVuSans-73"/>
      <path d="M 18.3125 70.21875 
L 18.3125 54.6875 
L 36.8125 54.6875 
L 36.8125 47.703125 
L 18.3125 47.703125 
L 18.3125 18.015625 
Q 18.3125 11.328125 20.140625 9.421875 
Q 21.96875 7.515625 27.59375 7.515625 
L 36.8125 7.515625 
L 36.8125 0 
L 27.59375 0 
Q 17.1875 0 13.234375 3.875 
Q 9.28125 7.765625 9.28125 18.015625 
L 9.28125 47.703125 
L 2.6875 47.703125 
L 2.6875 54.6875 
L 9.28125 54.6875 
L 9.28125 70.21875 
z
" id="DejaVuSans-74"/>
      <path d="M 30.609375 48.390625 
Q 23.390625 48.390625 19.1875 42.75 
Q 14.984375 37.109375 14.984375 27.296875 
Q 14.984375 17.484375 19.15625 11.84375 
Q 23.34375 6.203125 30.609375 6.203125 
Q 37.796875 6.203125 41.984375 11.859375 
Q 46.1875 17.53125 46.1875 27.296875 
Q 46.1875 37.015625 41.984375 42.703125 
Q 37.796875 48.390625 30.609375 48.390625 
z
M 30.609375 56 
Q 42.328125 56 49.015625 48.375 
Q 55.71875 40.765625 55.71875 27.296875 
Q 55.71875 13.875 49.015625 6.21875 
Q 42.328125 -1.421875 30.609375 -1.421875 
Q 18.84375 -1.421875 12.171875 6.21875 
Q 5.515625 13.875 5.515625 27.296875 
Q 5.515625 40.765625 12.171875 48.375 
Q 18.84375 56 30.609375 56 
z
" id="DejaVuSans-6f"/>
      <path d="M 54.890625 33.015625 
L 54.890625 0 
L 45.90625 0 
L 45.90625 32.71875 
Q 45.90625 40.484375 42.875 44.328125 
Q 39.84375 48.1875 33.796875 48.1875 
Q 26.515625 48.1875 22.3125 43.546875 
Q 18.109375 38.921875 18.109375 30.90625 
L 18.109375 0 
L 9.078125 0 
L 9.078125 54.6875 
L 18.109375 54.6875 
L 18.109375 46.1875 
Q 21.34375 51.125 25.703125 53.5625 
Q 30.078125 56 35.796875 56 
Q 45.21875 56 50.046875 50.171875 
Q 54.890625 44.34375 54.890625 33.015625 
z
" id="DejaVuSans-6e"/>
      <path id="DejaVuSans-20"/>
      <path d="M 18.109375 8.203125 
L 18.109375 -20.796875 
L 9.078125 -20.796875 
L 9.078125 54.6875 
L 18.109375 54.6875 
L 18.109375 46.390625 
Q 20.953125 51.265625 25.265625 53.625 
Q 29.59375 56 35.59375 56 
Q 45.5625 56 51.78125 48.09375 
Q 58.015625 40.1875 58.015625 27.296875 
Q 58.015625 14.40625 51.78125 6.484375 
Q 45.5625 -1.421875 35.59375 -1.421875 
Q 29.59375 -1.421875 25.265625 0.953125 
Q 20.953125 3.328125 18.109375 8.203125 
z
M 48.6875 27.296875 
Q 48.6875 37.203125 44.609375 42.84375 
Q 40.53125 48.484375 33.40625 48.484375 
Q 26.265625 48.484375 22.1875 42.84375 
Q 18.109375 37.203125 18.109375 27.296875 
Q 18.109375 17.390625 22.1875 11.75 
Q 26.265625 6.109375 33.40625 6.109375 
Q 40.53125 6.109375 44.609375 11.75 
Q 48.6875 17.390625 48.6875 27.296875 
z
" id="DejaVuSans-70"/>
      <path d="M 45.40625 46.390625 
L 45.40625 75.984375 
L 54.390625 75.984375 
L 54.390625 0 
L 45.40625 0 
L 45.40625 8.203125 
Q 42.578125 3.328125 38.25 0.953125 
Q 33.9375 -1.421875 27.875 -1.421875 
Q 17.96875 -1.421875 11.734375 6.484375 
Q 5.515625 14.40625 5.515625 27.296875 
Q 5.515625 40.1875 11.734375 48.09375 
Q 17.96875 56 27.875 56 
Q 33.9375 56 38.25 53.625 
Q 42.578125 51.265625 45.40625 46.390625 
z
M 14.796875 27.296875 
Q 14.796875 17.390625 18.875 11.75 
Q 22.953125 6.109375 30.078125 6.109375 
Q 37.203125 6.109375 41.296875 11.75 
Q 45.40625 17.390625 45.40625 27.296875 
Q 45.40625 37.203125 41.296875 42.84375 
Q 37.203125 48.484375 30.078125 48.484375 
Q 22.953125 48.484375 18.875 42.84375 
Q 14.796875 37.203125 14.796875 27.296875 
z
" id="DejaVuSans-64"/>
      <path d="M 56.203125 29.59375 
L 56.203125 25.203125 
L 14.890625 25.203125 
Q 15.484375 15.921875 20.484375 11.0625 
Q 25.484375 6.203125 34.421875 6.203125 
Q 39.59375 6.203125 44.453125 7.46875 
Q 49.3125 8.734375 54.109375 11.28125 
L 54.109375 2.78125 
Q 49.265625 0.734375 44.1875 -0.34375 
Q 39.109375 -1.421875 33.890625 -1.421875 
Q 20.796875 -1.421875 13.15625 6.1875 
Q 5.515625 13.8125 5.515625 26.8125 
Q 5.515625 40.234375 12.765625 48.109375 
Q 20.015625 56 32.328125 56 
Q 43.359375 56 49.78125 48.890625 
Q 56.203125 41.796875 56.203125 29.59375 
z
M 47.21875 32.234375 
Q 47.125 39.59375 43.09375 43.984375 
Q 39.0625 48.390625 32.421875 48.390625 
Q 24.90625 48.390625 20.390625 44.140625 
Q 15.875 39.890625 15.1875 32.171875 
z
" id="DejaVuSans-65"/>
      <path d="M 54.890625 54.6875 
L 35.109375 28.078125 
L 55.90625 0 
L 45.3125 0 
L 29.390625 21.484375 
L 13.484375 0 
L 2.875 0 
L 24.125 28.609375 
L 4.6875 54.6875 
L 15.28125 54.6875 
L 29.78125 35.203125 
L 44.28125 54.6875 
z
" id="DejaVuSans-78"/>
     </defs>
     <g transform="translate(580.639031 819.877613)scale(0.22 -0.22)">
      <use xlink:href="#DejaVuSans-41"/>
      <use x="68.392578" xlink:href="#DejaVuSans-71"/>
      <use x="131.869141" xlink:href="#DejaVuSans-75"/>
      <use x="195.248047" xlink:href="#DejaVuSans-69"/>
      <use x="223.03125" xlink:href="#DejaVuSans-73"/>
      <use x="275.130859" xlink:href="#DejaVuSans-69"/>
      <use x="302.914062" xlink:href="#DejaVuSans-74"/>
      <use x="342.123047" xlink:href="#DejaVuSans-69"/>
      <use x="369.90625" xlink:href="#DejaVuSans-6f"/>
      <use x="431.087891" xlink:href="#DejaVuSans-6e"/>
      <use x="494.466797" xlink:href="#DejaVuSans-20"/>
      <use x="526.253906" xlink:href="#DejaVuSans-70"/>
      <use x="589.730469" xlink:href="#DejaVuSans-6f"/>
      <use x="650.912109" xlink:href="#DejaVuSans-69"/>
      <use x="678.695312" xlink:href="#DejaVuSans-6e"/>
      <use x="742.074219" xlink:href="#DejaVuSans-74"/>
      <use x="781.283203" xlink:href="#DejaVuSans-20"/>
      <use x="813.070312" xlink:href="#DejaVuSans-69"/>
      <use x="840.853516" xlink:href="#DejaVuSans-6e"/>
      <use x="904.232422" xlink:href="#DejaVuSans-64"/>
      <use x="967.708984" xlink:href="#DejaVuSans-65"/>
      <use x="1029.216797" xlink:href="#DejaVuSans-78"/>
     </g>
    </g>
   </g>
   <g id="matplotlib.axis_2">
    <g id="ytick_1">
     <g id="line2d_13">
      <path clip-path="url(#p54fed019a9)" d="M 170.82 720.130846 
L 1229.904 720.130846 
" style="fill:none;stroke:#b0b0b0;stroke-linecap:square;stroke-width:0.8;"/>
     </g>
     <g id="line2d_14">
      <defs>
       <path d="M 0 0 
L -3.5 0 
" id="m5a4af564d7" style="stroke:#000000;stroke-width:0.8;"/>
      </defs>
      <g>
       <use style="stroke:#000000;stroke-width:0.8;" x="170.82" xlink:href="#m5a4af564d7" y="720.130846"/>
      </g>
     </g>
     <g id="text_8">
      <!-- 1.70 -->
      <defs>
       <path d="M 10.6875 12.40625 
L 21 12.40625 
L 21 0 
L 10.6875 0 
z
" id="DejaVuSans-2e"/>
       <path d="M 8.203125 72.90625 
L 55.078125 72.90625 
L 55.078125 68.703125 
L 28.609375 0 
L 18.3125 0 
L 43.21875 64.59375 
L 8.203125 64.59375 
z
" id="DejaVuSans-37"/>
      </defs>
      <g transform="translate(119.28875 727.729284)scale(0.2 -0.2)">
       <use xlink:href="#DejaVuSans-31"/>
       <use x="63.623047" xlink:href="#DejaVuSans-2e"/>
       <use x="95.410156" xlink:href="#DejaVuSans-37"/>
       <use x="159.033203" xlink:href="#DejaVuSans-30"/>
      </g>
     </g>
    </g>
    <g id="ytick_2">
     <g id="line2d_15">
      <path clip-path="url(#p54fed019a9)" d="M 170.82 627.747954 
L 1229.904 627.747954 
" style="fill:none;stroke:#b0b0b0;stroke-linecap:square;stroke-width:0.8;"/>
     </g>
     <g id="line2d_16">
      <g>
       <use style="stroke:#000000;stroke-width:0.8;" x="170.82" xlink:href="#m5a4af564d7" y="627.747954"/>
      </g>
     </g>
     <g id="text_9">
      <!-- 1.71 -->
      <g transform="translate(119.28875 635.346392)scale(0.2 -0.2)">
       <use xlink:href="#DejaVuSans-31"/>
       <use x="63.623047" xlink:href="#DejaVuSans-2e"/>
       <use x="95.410156" xlink:href="#DejaVuSans-37"/>
       <use x="159.033203" xlink:href="#DejaVuSans-31"/>
      </g>
     </g>
    </g>
    <g id="ytick_3">
     <g id="line2d_17">
      <path clip-path="url(#p54fed019a9)" d="M 170.82 535.365062 
L 1229.904 535.365062 
" style="fill:none;stroke:#b0b0b0;stroke-linecap:square;stroke-width:0.8;"/>
     </g>
     <g id="line2d_18">
      <g>
       <use style="stroke:#000000;stroke-width:0.8;" x="170.82" xlink:href="#m5a4af564d7" y="535.365062"/>
      </g>
     </g>
     <g id="text_10">
      <!-- 1.72 -->
      <g transform="translate(119.28875 542.9635)scale(0.2 -0.2)">
       <use xlink:href="#DejaVuSans-31"/>
       <use x="63.623047" xlink:href="#DejaVuSans-2e"/>
       <use x="95.410156" xlink:href="#DejaVuSans-37"/>
       <use x="159.033203" xlink:href="#DejaVuSans-32"/>
      </g>
     </g>
    </g>
    <g id="ytick_4">
     <g id="line2d_19">
      <path clip-path="url(#p54fed019a9)" d="M 170.82 442.98217 
L 1229.904 442.98217 
" style="fill:none;stroke:#b0b0b0;stroke-linecap:square;stroke-width:0.8;"/>
     </g>
     <g id="line2d_20">
      <g>
       <use style="stroke:#000000;stroke-width:0.8;" x="170.82" xlink:href="#m5a4af564d7" y="442.98217"/>
      </g>
     </g>
     <g id="text_11">
      <!-- 1.73 -->
      <defs>
       <path d="M 40.578125 39.3125 
Q 47.65625 37.796875 51.625 33 
Q 55.609375 28.21875 55.609375 21.1875 
Q 55.609375 10.40625 48.1875 4.484375 
Q 40.765625 -1.421875 27.09375 -1.421875 
Q 22.515625 -1.421875 17.65625 -0.515625 
Q 12.796875 0.390625 7.625 2.203125 
L 7.625 11.71875 
Q 11.71875 9.328125 16.59375 8.109375 
Q 21.484375 6.890625 26.8125 6.890625 
Q 36.078125 6.890625 40.9375 10.546875 
Q 45.796875 14.203125 45.796875 21.1875 
Q 45.796875 27.640625 41.28125 31.265625 
Q 36.765625 34.90625 28.71875 34.90625 
L 20.21875 34.90625 
L 20.21875 43.015625 
L 29.109375 43.015625 
Q 36.375 43.015625 40.234375 45.921875 
Q 44.09375 48.828125 44.09375 54.296875 
Q 44.09375 59.90625 40.109375 62.90625 
Q 36.140625 65.921875 28.71875 65.921875 
Q 24.65625 65.921875 20.015625 65.03125 
Q 15.375 64.15625 9.8125 62.3125 
L 9.8125 71.09375 
Q 15.4375 72.65625 20.34375 73.4375 
Q 25.25 74.21875 29.59375 74.21875 
Q 40.828125 74.21875 47.359375 69.109375 
Q 53.90625 64.015625 53.90625 55.328125 
Q 53.90625 49.265625 50.4375 45.09375 
Q 46.96875 40.921875 40.578125 39.3125 
z
" id="DejaVuSans-33"/>
      </defs>
      <g transform="translate(119.28875 450.580608)scale(0.2 -0.2)">
       <use xlink:href="#DejaVuSans-31"/>
       <use x="63.623047" xlink:href="#DejaVuSans-2e"/>
       <use x="95.410156" xlink:href="#DejaVuSans-37"/>
       <use x="159.033203" xlink:href="#DejaVuSans-33"/>
      </g>
     </g>
    </g>
    <g id="ytick_5">
     <g id="line2d_21">
      <path clip-path="url(#p54fed019a9)" d="M 170.82 350.599278 
L 1229.904 350.599278 
" style="fill:none;stroke:#b0b0b0;stroke-linecap:square;stroke-width:0.8;"/>
     </g>
     <g id="line2d_22">
      <g>
       <use style="stroke:#000000;stroke-width:0.8;" x="170.82" xlink:href="#m5a4af564d7" y="350.599278"/>
      </g>
     </g>
     <g id="text_12">
      <!-- 1.74 -->
      <g transform="translate(119.28875 358.197716)scale(0.2 -0.2)">
       <use xlink:href="#DejaVuSans-31"/>
       <use x="63.623047" xlink:href="#DejaVuSans-2e"/>
       <use x="95.410156" xlink:href="#DejaVuSans-37"/>
       <use x="159.033203" xlink:href="#DejaVuSans-34"/>
      </g>
     </g>
    </g>
    <g id="ytick_6">
     <g id="line2d_23">
      <path clip-path="url(#p54fed019a9)" d="M 170.82 258.216386 
L 1229.904 258.216386 
" style="fill:none;stroke:#b0b0b0;stroke-linecap:square;stroke-width:0.8;"/>
     </g>
     <g id="line2d_24">
      <g>
       <use style="stroke:#000000;stroke-width:0.8;" x="170.82" xlink:href="#m5a4af564d7" y="258.216386"/>
      </g>
     </g>
     <g id="text_13">
      <!-- 1.75 -->
      <defs>
       <path d="M 10.796875 72.90625 
L 49.515625 72.90625 
L 49.515625 64.59375 
L 19.828125 64.59375 
L 19.828125 46.734375 
Q 21.96875 47.46875 24.109375 47.828125 
Q 26.265625 48.1875 28.421875 48.1875 
Q 40.625 48.1875 47.75 41.5 
Q 54.890625 34.8125 54.890625 23.390625 
Q 54.890625 11.625 47.5625 5.09375 
Q 40.234375 -1.421875 26.90625 -1.421875 
Q 22.3125 -1.421875 17.546875 -0.640625 
Q 12.796875 0.140625 7.71875 1.703125 
L 7.71875 11.625 
Q 12.109375 9.234375 16.796875 8.0625 
Q 21.484375 6.890625 26.703125 6.890625 
Q 35.15625 6.890625 40.078125 11.328125 
Q 45.015625 15.765625 45.015625 23.390625 
Q 45.015625 31 40.078125 35.4375 
Q 35.15625 39.890625 26.703125 39.890625 
Q 22.75 39.890625 18.8125 39.015625 
Q 14.890625 38.140625 10.796875 36.28125 
z
" id="DejaVuSans-35"/>
      </defs>
      <g transform="translate(119.28875 265.814824)scale(0.2 -0.2)">
       <use xlink:href="#DejaVuSans-31"/>
       <use x="63.623047" xlink:href="#DejaVuSans-2e"/>
       <use x="95.410156" xlink:href="#DejaVuSans-37"/>
       <use x="159.033203" xlink:href="#DejaVuSans-35"/>
      </g>
     </g>
    </g>
    <g id="ytick_7">
     <g id="line2d_25">
      <path clip-path="url(#p54fed019a9)" d="M 170.82 165.833494 
L 1229.904 165.833494 
" style="fill:none;stroke:#b0b0b0;stroke-linecap:square;stroke-width:0.8;"/>
     </g>
     <g id="line2d_26">
      <g>
       <use style="stroke:#000000;stroke-width:0.8;" x="170.82" xlink:href="#m5a4af564d7" y="165.833494"/>
      </g>
     </g>
     <g id="text_14">
      <!-- 1.76 -->
      <g transform="translate(119.28875 173.431932)scale(0.2 -0.2)">
       <use xlink:href="#DejaVuSans-31"/>
       <use x="63.623047" xlink:href="#DejaVuSans-2e"/>
       <use x="95.410156" xlink:href="#DejaVuSans-37"/>
       <use x="159.033203" xlink:href="#DejaVuSans-36"/>
      </g>
     </g>
    </g>
    <g id="text_15">
     <!-- Current [A] -->
     <defs>
      <path d="M 64.40625 67.28125 
L 64.40625 56.890625 
Q 59.421875 61.53125 53.78125 63.8125 
Q 48.140625 66.109375 41.796875 66.109375 
Q 29.296875 66.109375 22.65625 58.46875 
Q 16.015625 50.828125 16.015625 36.375 
Q 16.015625 21.96875 22.65625 14.328125 
Q 29.296875 6.6875 41.796875 6.6875 
Q 48.140625 6.6875 53.78125 8.984375 
Q 59.421875 11.28125 64.40625 15.921875 
L 64.40625 5.609375 
Q 59.234375 2.09375 53.4375 0.328125 
Q 47.65625 -1.421875 41.21875 -1.421875 
Q 24.65625 -1.421875 15.125 8.703125 
Q 5.609375 18.84375 5.609375 36.375 
Q 5.609375 53.953125 15.125 64.078125 
Q 24.65625 74.21875 41.21875 74.21875 
Q 47.75 74.21875 53.53125 72.484375 
Q 59.328125 70.75 64.40625 67.28125 
z
" id="DejaVuSans-43"/>
      <path d="M 41.109375 46.296875 
Q 39.59375 47.171875 37.8125 47.578125 
Q 36.03125 48 33.890625 48 
Q 26.265625 48 22.1875 43.046875 
Q 18.109375 38.09375 18.109375 28.8125 
L 18.109375 0 
L 9.078125 0 
L 9.078125 54.6875 
L 18.109375 54.6875 
L 18.109375 46.1875 
Q 20.953125 51.171875 25.484375 53.578125 
Q 30.03125 56 36.53125 56 
Q 37.453125 56 38.578125 55.875 
Q 39.703125 55.765625 41.0625 55.515625 
z
" id="DejaVuSans-72"/>
      <path d="M 8.59375 75.984375 
L 29.296875 75.984375 
L 29.296875 69 
L 17.578125 69 
L 17.578125 -6.203125 
L 29.296875 -6.203125 
L 29.296875 -13.1875 
L 8.59375 -13.1875 
z
" id="DejaVuSans-5b"/>
      <path d="M 30.421875 75.984375 
L 30.421875 -13.1875 
L 9.71875 -13.1875 
L 9.71875 -6.203125 
L 21.390625 -6.203125 
L 21.390625 69 
L 9.71875 69 
L 9.71875 75.984375 
z
" id="DejaVuSans-5d"/>
     </defs>
     <g transform="translate(110.713437 499.848944)rotate(-90)scale(0.22 -0.22)">
      <use xlink:href="#DejaVuSans-43"/>
      <use x="69.824219" xlink:href="#DejaVuSans-75"/>
      <use x="133.203125" xlink:href="#DejaVuSans-72"/>
      <use x="174.300781" xlink:href="#DejaVuSans-72"/>
      <use x="215.382812" xlink:href="#DejaVuSans-65"/>
      <use x="276.90625" xlink:href="#DejaVuSans-6e"/>
      <use x="340.285156" xlink:href="#DejaVuSans-74"/>
      <use x="379.494141" xlink:href="#DejaVuSans-20"/>
      <use x="411.28125" xlink:href="#DejaVuSans-5b"/>
      <use x="450.294922" xlink:href="#DejaVuSans-41"/>
      <use x="518.703125" xlink:href="#DejaVuSans-5d"/>
     </g>
    </g>
   </g>
   <g id="line2d_27">
    <path clip-path="url(#p54fed019a9)" d="M 218.960182 732.981307 
L 228.685471 726.10802 
L 238.41076 721.451922 
L 248.13605 716.805062 
L 257.861339 711.012655 
L 267.586628 704.499661 
L 277.311917 697.931237 
L 287.037207 691.104142 
L 296.762496 687.399588 
L 306.487785 681.967474 
L 316.213074 674.761608 
L 325.938364 667.943751 
L 335.663653 661.744859 
L 345.388942 654.030887 
L 355.114231 649.226977 
L 364.839521 644.367637 
L 374.56481 637.189486 
L 384.290099 632.163857 
L 394.015388 624.884085 
L 403.740678 619.036248 
L 413.465967 613.142219 
L 423.191256 607.516101 
L 432.916545 601.926936 
L 442.641835 594.277633 
L 452.367124 587.293486 
L 462.092413 580.660394 
L 471.817702 575.33914 
L 481.542992 569.371205 
L 491.268281 565.805225 
L 500.99357 559.449282 
L 510.71886 552.945527 
L 520.444149 545.785853 
L 530.169438 540.150496 
L 539.894727 535.688402 
L 549.620017 530.533437 
L 559.345306 521.489152 
L 569.070595 516.69448 
L 578.795884 509.701095 
L 588.521174 503.335914 
L 598.246463 498.568956 
L 607.971752 491.446235 
L 617.697041 486.3467 
L 627.422331 478.632728 
L 637.14762 472.941942 
L 646.872909 466.447425 
L 656.598198 461.23703 
L 666.323488 456.035873 
L 676.048777 448.885437 
L 685.774066 441.661095 
L 695.499355 435.166578 
L 705.224645 430.806105 
L 714.949934 425.106081 
L 724.675223 419.877209 
L 734.400512 414.657576 
L 744.125802 407.599523 
L 753.851091 400.763189 
L 763.57638 393.372557 
L 773.301669 388.33769 
L 783.026959 382.07413 
L 792.752248 377.630512 
L 802.477537 369.842635 
L 812.202826 363.837747 
L 821.928116 357.306276 
L 831.653405 353.34305 
L 841.378694 347.994081 
L 851.103983 341.379466 
L 860.829273 333.776354 
L 870.554562 327.180215 
L 880.279851 321.526382 
L 890.00514 314.643857 
L 899.73043 310.625201 
L 909.455719 304.740411 
L 919.181008 299.02191 
L 928.906298 292.194814 
L 938.631587 284.721038 
L 948.356876 280.914863 
L 958.082165 276.203335 
L 967.807455 269.64415 
L 977.532744 263.574594 
L 987.258033 255.306325 
L 996.983322 249.024288 
L 1006.708612 242.954732 
L 1016.433901 239.370276 
L 1026.15919 233.716443 
L 1035.884479 226.372003 
L 1045.609769 219.166138 
L 1055.335058 213.152011 
L 1065.060347 206.89769 
L 1074.785636 201.687295 
L 1084.510926 196.596997 
L 1094.236215 188.624354 
L 1103.961504 182.249934 
L 1113.686793 176.023327 
L 1123.412083 169.815197 
L 1133.137372 165.343865 
L 1142.862661 160.983392 
L 1152.58795 154.72907 
L 1162.31324 148.022073 
L 1172.038529 140.520582 
L 1181.763818 134.5896 
" style="fill:none;stroke:#0000ff;stroke-linecap:square;stroke-width:1.5;"/>
    <defs>
     <path d="M 0 3 
C 0.795609 3 1.55874 2.683901 2.12132 2.12132 
C 2.683901 1.55874 3 0.795609 3 0 
C 3 -0.795609 2.683901 -1.55874 2.12132 -2.12132 
C 1.55874 -2.683901 0.795609 -3 0 -3 
C -0.795609 -3 -1.55874 -2.683901 -2.12132 -2.12132 
C -2.683901 -1.55874 -3 -0.795609 -3 0 
C -3 0.795609 -2.683901 1.55874 -2.12132 2.12132 
C -1.55874 2.683901 -0.795609 3 0 3 
z
" id="m9c187ab521" style="stroke:#0000ff;"/>
    </defs>
    <g clip-path="url(#p54fed019a9)">
     <use style="fill:#0000ff;stroke:#0000ff;" x="218.960182" xlink:href="#m9c187ab521" y="732.981307"/>
     <use style="fill:#0000ff;stroke:#0000ff;" x="228.685471" xlink:href="#m9c187ab521" y="726.10802"/>
     <use style="fill:#0000ff;stroke:#0000ff;" x="238.41076" xlink:href="#m9c187ab521" y="721.451922"/>
     <use style="fill:#0000ff;stroke:#0000ff;" x="248.13605" xlink:href="#m9c187ab521" y="716.805062"/>
     <use style="fill:#0000ff;stroke:#0000ff;" x="257.861339" xlink:href="#m9c187ab521" y="711.012655"/>
     <use style="fill:#0000ff;stroke:#0000ff;" x="267.586628" xlink:href="#m9c187ab521" y="704.499661"/>
     <use style="fill:#0000ff;stroke:#0000ff;" x="277.311917" xlink:href="#m9c187ab521" y="697.931237"/>
     <use style="fill:#0000ff;stroke:#0000ff;" x="287.037207" xlink:href="#m9c187ab521" y="691.104142"/>
     <use style="fill:#0000ff;stroke:#0000ff;" x="296.762496" xlink:href="#m9c187ab521" y="687.399588"/>
     <use style="fill:#0000ff;stroke:#0000ff;" x="306.487785" xlink:href="#m9c187ab521" y="681.967474"/>
     <use style="fill:#0000ff;stroke:#0000ff;" x="316.213074" xlink:href="#m9c187ab521" y="674.761608"/>
     <use style="fill:#0000ff;stroke:#0000ff;" x="325.938364" xlink:href="#m9c187ab521" y="667.943751"/>
     <use style="fill:#0000ff;stroke:#0000ff;" x="335.663653" xlink:href="#m9c187ab521" y="661.744859"/>
     <use style="fill:#0000ff;stroke:#0000ff;" x="345.388942" xlink:href="#m9c187ab521" y="654.030887"/>
     <use style="fill:#0000ff;stroke:#0000ff;" x="355.114231" xlink:href="#m9c187ab521" y="649.226977"/>
     <use style="fill:#0000ff;stroke:#0000ff;" x="364.839521" xlink:href="#m9c187ab521" y="644.367637"/>
     <use style="fill:#0000ff;stroke:#0000ff;" x="374.56481" xlink:href="#m9c187ab521" y="637.189486"/>
     <use style="fill:#0000ff;stroke:#0000ff;" x="384.290099" xlink:href="#m9c187ab521" y="632.163857"/>
     <use style="fill:#0000ff;stroke:#0000ff;" x="394.015388" xlink:href="#m9c187ab521" y="624.884085"/>
     <use style="fill:#0000ff;stroke:#0000ff;" x="403.740678" xlink:href="#m9c187ab521" y="619.036248"/>
     <use style="fill:#0000ff;stroke:#0000ff;" x="413.465967" xlink:href="#m9c187ab521" y="613.142219"/>
     <use style="fill:#0000ff;stroke:#0000ff;" x="423.191256" xlink:href="#m9c187ab521" y="607.516101"/>
     <use style="fill:#0000ff;stroke:#0000ff;" x="432.916545" xlink:href="#m9c187ab521" y="601.926936"/>
     <use style="fill:#0000ff;stroke:#0000ff;" x="442.641835" xlink:href="#m9c187ab521" y="594.277633"/>
     <use style="fill:#0000ff;stroke:#0000ff;" x="452.367124" xlink:href="#m9c187ab521" y="587.293486"/>
     <use style="fill:#0000ff;stroke:#0000ff;" x="462.092413" xlink:href="#m9c187ab521" y="580.660394"/>
     <use style="fill:#0000ff;stroke:#0000ff;" x="471.817702" xlink:href="#m9c187ab521" y="575.33914"/>
     <use style="fill:#0000ff;stroke:#0000ff;" x="481.542992" xlink:href="#m9c187ab521" y="569.371205"/>
     <use style="fill:#0000ff;stroke:#0000ff;" x="491.268281" xlink:href="#m9c187ab521" y="565.805225"/>
     <use style="fill:#0000ff;stroke:#0000ff;" x="500.99357" xlink:href="#m9c187ab521" y="559.449282"/>
     <use style="fill:#0000ff;stroke:#0000ff;" x="510.71886" xlink:href="#m9c187ab521" y="552.945527"/>
     <use style="fill:#0000ff;stroke:#0000ff;" x="520.444149" xlink:href="#m9c187ab521" y="545.785853"/>
     <use style="fill:#0000ff;stroke:#0000ff;" x="530.169438" xlink:href="#m9c187ab521" y="540.150496"/>
     <use style="fill:#0000ff;stroke:#0000ff;" x="539.894727" xlink:href="#m9c187ab521" y="535.688402"/>
     <use style="fill:#0000ff;stroke:#0000ff;" x="549.620017" xlink:href="#m9c187ab521" y="530.533437"/>
     <use style="fill:#0000ff;stroke:#0000ff;" x="559.345306" xlink:href="#m9c187ab521" y="521.489152"/>
     <use style="fill:#0000ff;stroke:#0000ff;" x="569.070595" xlink:href="#m9c187ab521" y="516.69448"/>
     <use style="fill:#0000ff;stroke:#0000ff;" x="578.795884" xlink:href="#m9c187ab521" y="509.701095"/>
     <use style="fill:#0000ff;stroke:#0000ff;" x="588.521174" xlink:href="#m9c187ab521" y="503.335914"/>
     <use style="fill:#0000ff;stroke:#0000ff;" x="598.246463" xlink:href="#m9c187ab521" y="498.568956"/>
     <use style="fill:#0000ff;stroke:#0000ff;" x="607.971752" xlink:href="#m9c187ab521" y="491.446235"/>
     <use style="fill:#0000ff;stroke:#0000ff;" x="617.697041" xlink:href="#m9c187ab521" y="486.3467"/>
     <use style="fill:#0000ff;stroke:#0000ff;" x="627.422331" xlink:href="#m9c187ab521" y="478.632728"/>
     <use style="fill:#0000ff;stroke:#0000ff;" x="637.14762" xlink:href="#m9c187ab521" y="472.941942"/>
     <use style="fill:#0000ff;stroke:#0000ff;" x="646.872909" xlink:href="#m9c187ab521" y="466.447425"/>
     <use style="fill:#0000ff;stroke:#0000ff;" x="656.598198" xlink:href="#m9c187ab521" y="461.23703"/>
     <use style="fill:#0000ff;stroke:#0000ff;" x="666.323488" xlink:href="#m9c187ab521" y="456.035873"/>
     <use style="fill:#0000ff;stroke:#0000ff;" x="676.048777" xlink:href="#m9c187ab521" y="448.885437"/>
     <use style="fill:#0000ff;stroke:#0000ff;" x="685.774066" xlink:href="#m9c187ab521" y="441.661095"/>
     <use style="fill:#0000ff;stroke:#0000ff;" x="695.499355" xlink:href="#m9c187ab521" y="435.166578"/>
     <use style="fill:#0000ff;stroke:#0000ff;" x="705.224645" xlink:href="#m9c187ab521" y="430.806105"/>
     <use style="fill:#0000ff;stroke:#0000ff;" x="714.949934" xlink:href="#m9c187ab521" y="425.106081"/>
     <use style="fill:#0000ff;stroke:#0000ff;" x="724.675223" xlink:href="#m9c187ab521" y="419.877209"/>
     <use style="fill:#0000ff;stroke:#0000ff;" x="734.400512" xlink:href="#m9c187ab521" y="414.657576"/>
     <use style="fill:#0000ff;stroke:#0000ff;" x="744.125802" xlink:href="#m9c187ab521" y="407.599523"/>
     <use style="fill:#0000ff;stroke:#0000ff;" x="753.851091" xlink:href="#m9c187ab521" y="400.763189"/>
     <use style="fill:#0000ff;stroke:#0000ff;" x="763.57638" xlink:href="#m9c187ab521" y="393.372557"/>
     <use style="fill:#0000ff;stroke:#0000ff;" x="773.301669" xlink:href="#m9c187ab521" y="388.33769"/>
     <use style="fill:#0000ff;stroke:#0000ff;" x="783.026959" xlink:href="#m9c187ab521" y="382.07413"/>
     <use style="fill:#0000ff;stroke:#0000ff;" x="792.752248" xlink:href="#m9c187ab521" y="377.630512"/>
     <use style="fill:#0000ff;stroke:#0000ff;" x="802.477537" xlink:href="#m9c187ab521" y="369.842635"/>
     <use style="fill:#0000ff;stroke:#0000ff;" x="812.202826" xlink:href="#m9c187ab521" y="363.837747"/>
     <use style="fill:#0000ff;stroke:#0000ff;" x="821.928116" xlink:href="#m9c187ab521" y="357.306276"/>
     <use style="fill:#0000ff;stroke:#0000ff;" x="831.653405" xlink:href="#m9c187ab521" y="353.34305"/>
     <use style="fill:#0000ff;stroke:#0000ff;" x="841.378694" xlink:href="#m9c187ab521" y="347.994081"/>
     <use style="fill:#0000ff;stroke:#0000ff;" x="851.103983" xlink:href="#m9c187ab521" y="341.379466"/>
     <use style="fill:#0000ff;stroke:#0000ff;" x="860.829273" xlink:href="#m9c187ab521" y="333.776354"/>
     <use style="fill:#0000ff;stroke:#0000ff;" x="870.554562" xlink:href="#m9c187ab521" y="327.180215"/>
     <use style="fill:#0000ff;stroke:#0000ff;" x="880.279851" xlink:href="#m9c187ab521" y="321.526382"/>
     <use style="fill:#0000ff;stroke:#0000ff;" x="890.00514" xlink:href="#m9c187ab521" y="314.643857"/>
     <use style="fill:#0000ff;stroke:#0000ff;" x="899.73043" xlink:href="#m9c187ab521" y="310.625201"/>
     <use style="fill:#0000ff;stroke:#0000ff;" x="909.455719" xlink:href="#m9c187ab521" y="304.740411"/>
     <use style="fill:#0000ff;stroke:#0000ff;" x="919.181008" xlink:href="#m9c187ab521" y="299.02191"/>
     <use style="fill:#0000ff;stroke:#0000ff;" x="928.906298" xlink:href="#m9c187ab521" y="292.194814"/>
     <use style="fill:#0000ff;stroke:#0000ff;" x="938.631587" xlink:href="#m9c187ab521" y="284.721038"/>
     <use style="fill:#0000ff;stroke:#0000ff;" x="948.356876" xlink:href="#m9c187ab521" y="280.914863"/>
     <use style="fill:#0000ff;stroke:#0000ff;" x="958.082165" xlink:href="#m9c187ab521" y="276.203335"/>
     <use style="fill:#0000ff;stroke:#0000ff;" x="967.807455" xlink:href="#m9c187ab521" y="269.64415"/>
     <use style="fill:#0000ff;stroke:#0000ff;" x="977.532744" xlink:href="#m9c187ab521" y="263.574594"/>
     <use style="fill:#0000ff;stroke:#0000ff;" x="987.258033" xlink:href="#m9c187ab521" y="255.306325"/>
     <use style="fill:#0000ff;stroke:#0000ff;" x="996.983322" xlink:href="#m9c187ab521" y="249.024288"/>
     <use style="fill:#0000ff;stroke:#0000ff;" x="1006.708612" xlink:href="#m9c187ab521" y="242.954732"/>
     <use style="fill:#0000ff;stroke:#0000ff;" x="1016.433901" xlink:href="#m9c187ab521" y="239.370276"/>
     <use style="fill:#0000ff;stroke:#0000ff;" x="1026.15919" xlink:href="#m9c187ab521" y="233.716443"/>
     <use style="fill:#0000ff;stroke:#0000ff;" x="1035.884479" xlink:href="#m9c187ab521" y="226.372003"/>
     <use style="fill:#0000ff;stroke:#0000ff;" x="1045.609769" xlink:href="#m9c187ab521" y="219.166138"/>
     <use style="fill:#0000ff;stroke:#0000ff;" x="1055.335058" xlink:href="#m9c187ab521" y="213.152011"/>
     <use style="fill:#0000ff;stroke:#0000ff;" x="1065.060347" xlink:href="#m9c187ab521" y="206.89769"/>
     <use style="fill:#0000ff;stroke:#0000ff;" x="1074.785636" xlink:href="#m9c187ab521" y="201.687295"/>
     <use style="fill:#0000ff;stroke:#0000ff;" x="1084.510926" xlink:href="#m9c187ab521" y="196.596997"/>
     <use style="fill:#0000ff;stroke:#0000ff;" x="1094.236215" xlink:href="#m9c187ab521" y="188.624354"/>
     <use style="fill:#0000ff;stroke:#0000ff;" x="1103.961504" xlink:href="#m9c187ab521" y="182.249934"/>
     <use style="fill:#0000ff;stroke:#0000ff;" x="1113.686793" xlink:href="#m9c187ab521" y="176.023327"/>
     <use style="fill:#0000ff;stroke:#0000ff;" x="1123.412083" xlink:href="#m9c187ab521" y="169.815197"/>
     <use style="fill:#0000ff;stroke:#0000ff;" x="1133.137372" xlink:href="#m9c187ab521" y="165.343865"/>
     <use style="fill:#0000ff;stroke:#0000ff;" x="1142.862661" xlink:href="#m9c187ab521" y="160.983392"/>
     <use style="fill:#0000ff;stroke:#0000ff;" x="1152.58795" xlink:href="#m9c187ab521" y="154.72907"/>
     <use style="fill:#0000ff;stroke:#0000ff;" x="1162.31324" xlink:href="#m9c187ab521" y="148.022073"/>
     <use style="fill:#0000ff;stroke:#0000ff;" x="1172.038529" xlink:href="#m9c187ab521" y="140.520582"/>
     <use style="fill:#0000ff;stroke:#0000ff;" x="1181.763818" xlink:href="#m9c187ab521" y="134.5896"/>
    </g>
   </g>
   <g id="line2d_28">
    <path clip-path="url(#p54fed019a9)" d="M 218.960182 740.150219 
L 228.685471 742.4136 
L 238.41076 739.540492 
L 248.13605 728.648549 
L 257.861339 716.149144 
L 267.586628 700.407099 
L 277.311917 687.103963 
L 287.037207 677.607001 
L 296.762496 669.902268 
L 306.487785 665.320077 
L 316.213074 664.738064 
L 325.938364 665.126073 
L 335.663653 666.798203 
L 345.388942 669.615881 
L 355.114231 668.294806 
L 364.839521 661.633999 
L 374.56481 649.26393 
L 384.290099 633.660459 
L 394.015388 620.726855 
L 403.740678 606.740085 
L 413.465967 598.148476 
L 423.191256 591.441478 
L 432.916545 588.900948 
L 442.641835 589.335148 
L 452.367124 590.610032 
L 462.092413 593.824956 
L 471.817702 594.554781 
L 481.542992 585.722977 
L 491.268281 574.969608 
L 500.99357 560.687213 
L 510.71886 545.397844 
L 520.444149 533.027775 
L 530.169438 525.129038 
L 539.894727 518.31118 
L 549.620017 514.274048 
L 559.345306 514.597388 
L 569.070595 516.408093 
L 578.795884 519.465967 
L 588.521174 519.521396 
L 598.246463 517.738407 
L 607.971752 506.310643 
L 617.697041 493.801999 
L 627.422331 479.242455 
L 637.14762 465.819221 
L 646.872909 454.206692 
L 656.598198 447.813796 
L 666.323488 443.30551 
L 676.048777 440.792696 
L 685.774066 442.224631 
L 695.499355 444.38639 
L 705.224645 446.631295 
L 714.949934 446.123189 
L 724.675223 438.409217 
L 734.400512 424.681119 
L 744.125802 411.738276 
L 753.851091 396.411954 
L 763.57638 384.993429 
L 773.301669 374.720451 
L 783.026959 369.205193 
L 792.752248 366.387514 
L 802.477537 366.886382 
L 812.202826 369.00195 
L 821.928116 371.856582 
L 831.653405 370.581698 
L 841.378694 364.271946 
L 851.103983 352.252932 
L 860.829273 337.092899 
L 870.554562 324.103865 
L 880.279851 311.87237 
L 890.00514 302.541698 
L 899.73043 295.45593 
L 909.455719 293.645225 
L 919.181008 292.259482 
L 928.906298 294.208761 
L 938.631587 296.583001 
L 948.356876 298.393706 
L 958.082165 294.689152 
L 967.807455 284.961233 
L 977.532744 270.771221 
L 987.258033 256.673592 
L 996.983322 241.735278 
L 1006.708612 231.831832 
L 1016.433901 224.127099 
L 1026.15919 219.175376 
L 1035.884479 218.048305 
L 1045.609769 218.094496 
L 1055.335058 220.635026 
L 1065.060347 222.325633 
L 1074.785636 219.434048 
L 1084.510926 209.142594 
L 1094.236215 196.975767 
L 1103.961504 181.159816 
L 1113.686793 168.133828 
L 1123.412083 157.445127 
L 1133.137372 149.54639 
L 1142.862661 145.841836 
L 1152.58795 143.107303 
L 1162.31324 143.772459 
L 1172.038529 146.433087 
L 1181.763818 148.770374 
" style="fill:none;stroke:#ff0000;stroke-linecap:square;stroke-width:1.5;"/>
    <defs>
     <path d="M 0 3 
C 0.795609 3 1.55874 2.683901 2.12132 2.12132 
C 2.683901 1.55874 3 0.795609 3 0 
C 3 -0.795609 2.683901 -1.55874 2.12132 -2.12132 
C 1.55874 -2.683901 0.795609 -3 0 -3 
C -0.795609 -3 -1.55874 -2.683901 -2.12132 -2.12132 
C -2.683901 -1.55874 -3 -0.795609 -3 0 
C -3 0.795609 -2.683901 1.55874 -2.12132 2.12132 
C -1.55874 2.683901 -0.795609 3 0 3 
z
" id="m677ead0a8c" style="stroke:#ff0000;"/>
    </defs>
    <g clip-path="url(#p54fed019a9)">
     <use style="fill:#ff0000;stroke:#ff0000;" x="218.960182" xlink:href="#m677ead0a8c" y="740.150219"/>
     <use style="fill:#ff0000;stroke:#ff0000;" x="228.685471" xlink:href="#m677ead0a8c" y="742.4136"/>
     <use style="fill:#ff0000;stroke:#ff0000;" x="238.41076" xlink:href="#m677ead0a8c" y="739.540492"/>
     <use style="fill:#ff0000;stroke:#ff0000;" x="248.13605" xlink:href="#m677ead0a8c" y="728.648549"/>
     <use style="fill:#ff0000;stroke:#ff0000;" x="257.861339" xlink:href="#m677ead0a8c" y="716.149144"/>
     <use style="fill:#ff0000;stroke:#ff0000;" x="267.586628" xlink:href="#m677ead0a8c" y="700.407099"/>
     <use style="fill:#ff0000;stroke:#ff0000;" x="277.311917" xlink:href="#m677ead0a8c" y="687.103963"/>
     <use style="fill:#ff0000;stroke:#ff0000;" x="287.037207" xlink:href="#m677ead0a8c" y="677.607001"/>
     <use style="fill:#ff0000;stroke:#ff0000;" x="296.762496" xlink:href="#m677ead0a8c" y="669.902268"/>
     <use style="fill:#ff0000;stroke:#ff0000;" x="306.487785" xlink:href="#m677ead0a8c" y="665.320077"/>
     <use style="fill:#ff0000;stroke:#ff0000;" x="316.213074" xlink:href="#m677ead0a8c" y="664.738064"/>
     <use style="fill:#ff0000;stroke:#ff0000;" x="325.938364" xlink:href="#m677ead0a8c" y="665.126073"/>
     <use style="fill:#ff0000;stroke:#ff0000;" x="335.663653" xlink:href="#m677ead0a8c" y="666.798203"/>
     <use style="fill:#ff0000;stroke:#ff0000;" x="345.388942" xlink:href="#m677ead0a8c" y="669.615881"/>
     <use style="fill:#ff0000;stroke:#ff0000;" x="355.114231" xlink:href="#m677ead0a8c" y="668.294806"/>
     <use style="fill:#ff0000;stroke:#ff0000;" x="364.839521" xlink:href="#m677ead0a8c" y="661.633999"/>
     <use style="fill:#ff0000;stroke:#ff0000;" x="374.56481" xlink:href="#m677ead0a8c" y="649.26393"/>
     <use style="fill:#ff0000;stroke:#ff0000;" x="384.290099" xlink:href="#m677ead0a8c" y="633.660459"/>
     <use style="fill:#ff0000;stroke:#ff0000;" x="394.015388" xlink:href="#m677ead0a8c" y="620.726855"/>
     <use style="fill:#ff0000;stroke:#ff0000;" x="403.740678" xlink:href="#m677ead0a8c" y="606.740085"/>
     <use style="fill:#ff0000;stroke:#ff0000;" x="413.465967" xlink:href="#m677ead0a8c" y="598.148476"/>
     <use style="fill:#ff0000;stroke:#ff0000;" x="423.191256" xlink:href="#m677ead0a8c" y="591.441478"/>
     <use style="fill:#ff0000;stroke:#ff0000;" x="432.916545" xlink:href="#m677ead0a8c" y="588.900948"/>
     <use style="fill:#ff0000;stroke:#ff0000;" x="442.641835" xlink:href="#m677ead0a8c" y="589.335148"/>
     <use style="fill:#ff0000;stroke:#ff0000;" x="452.367124" xlink:href="#m677ead0a8c" y="590.610032"/>
     <use style="fill:#ff0000;stroke:#ff0000;" x="462.092413" xlink:href="#m677ead0a8c" y="593.824956"/>
     <use style="fill:#ff0000;stroke:#ff0000;" x="471.817702" xlink:href="#m677ead0a8c" y="594.554781"/>
     <use style="fill:#ff0000;stroke:#ff0000;" x="481.542992" xlink:href="#m677ead0a8c" y="585.722977"/>
     <use style="fill:#ff0000;stroke:#ff0000;" x="491.268281" xlink:href="#m677ead0a8c" y="574.969608"/>
     <use style="fill:#ff0000;stroke:#ff0000;" x="500.99357" xlink:href="#m677ead0a8c" y="560.687213"/>
     <use style="fill:#ff0000;stroke:#ff0000;" x="510.71886" xlink:href="#m677ead0a8c" y="545.397844"/>
     <use style="fill:#ff0000;stroke:#ff0000;" x="520.444149" xlink:href="#m677ead0a8c" y="533.027775"/>
     <use style="fill:#ff0000;stroke:#ff0000;" x="530.169438" xlink:href="#m677ead0a8c" y="525.129038"/>
     <use style="fill:#ff0000;stroke:#ff0000;" x="539.894727" xlink:href="#m677ead0a8c" y="518.31118"/>
     <use style="fill:#ff0000;stroke:#ff0000;" x="549.620017" xlink:href="#m677ead0a8c" y="514.274048"/>
     <use style="fill:#ff0000;stroke:#ff0000;" x="559.345306" xlink:href="#m677ead0a8c" y="514.597388"/>
     <use style="fill:#ff0000;stroke:#ff0000;" x="569.070595" xlink:href="#m677ead0a8c" y="516.408093"/>
     <use style="fill:#ff0000;stroke:#ff0000;" x="578.795884" xlink:href="#m677ead0a8c" y="519.465967"/>
     <use style="fill:#ff0000;stroke:#ff0000;" x="588.521174" xlink:href="#m677ead0a8c" y="519.521396"/>
     <use style="fill:#ff0000;stroke:#ff0000;" x="598.246463" xlink:href="#m677ead0a8c" y="517.738407"/>
     <use style="fill:#ff0000;stroke:#ff0000;" x="607.971752" xlink:href="#m677ead0a8c" y="506.310643"/>
     <use style="fill:#ff0000;stroke:#ff0000;" x="617.697041" xlink:href="#m677ead0a8c" y="493.801999"/>
     <use style="fill:#ff0000;stroke:#ff0000;" x="627.422331" xlink:href="#m677ead0a8c" y="479.242455"/>
     <use style="fill:#ff0000;stroke:#ff0000;" x="637.14762" xlink:href="#m677ead0a8c" y="465.819221"/>
     <use style="fill:#ff0000;stroke:#ff0000;" x="646.872909" xlink:href="#m677ead0a8c" y="454.206692"/>
     <use style="fill:#ff0000;stroke:#ff0000;" x="656.598198" xlink:href="#m677ead0a8c" y="447.813796"/>
     <use style="fill:#ff0000;stroke:#ff0000;" x="666.323488" xlink:href="#m677ead0a8c" y="443.30551"/>
     <use style="fill:#ff0000;stroke:#ff0000;" x="676.048777" xlink:href="#m677ead0a8c" y="440.792696"/>
     <use style="fill:#ff0000;stroke:#ff0000;" x="685.774066" xlink:href="#m677ead0a8c" y="442.224631"/>
     <use style="fill:#ff0000;stroke:#ff0000;" x="695.499355" xlink:href="#m677ead0a8c" y="444.38639"/>
     <use style="fill:#ff0000;stroke:#ff0000;" x="705.224645" xlink:href="#m677ead0a8c" y="446.631295"/>
     <use style="fill:#ff0000;stroke:#ff0000;" x="714.949934" xlink:href="#m677ead0a8c" y="446.123189"/>
     <use style="fill:#ff0000;stroke:#ff0000;" x="724.675223" xlink:href="#m677ead0a8c" y="438.409217"/>
     <use style="fill:#ff0000;stroke:#ff0000;" x="734.400512" xlink:href="#m677ead0a8c" y="424.681119"/>
     <use style="fill:#ff0000;stroke:#ff0000;" x="744.125802" xlink:href="#m677ead0a8c" y="411.738276"/>
     <use style="fill:#ff0000;stroke:#ff0000;" x="753.851091" xlink:href="#m677ead0a8c" y="396.411954"/>
     <use style="fill:#ff0000;stroke:#ff0000;" x="763.57638" xlink:href="#m677ead0a8c" y="384.993429"/>
     <use style="fill:#ff0000;stroke:#ff0000;" x="773.301669" xlink:href="#m677ead0a8c" y="374.720451"/>
     <use style="fill:#ff0000;stroke:#ff0000;" x="783.026959" xlink:href="#m677ead0a8c" y="369.205193"/>
     <use style="fill:#ff0000;stroke:#ff0000;" x="792.752248" xlink:href="#m677ead0a8c" y="366.387514"/>
     <use style="fill:#ff0000;stroke:#ff0000;" x="802.477537" xlink:href="#m677ead0a8c" y="366.886382"/>
     <use style="fill:#ff0000;stroke:#ff0000;" x="812.202826" xlink:href="#m677ead0a8c" y="369.00195"/>
     <use style="fill:#ff0000;stroke:#ff0000;" x="821.928116" xlink:href="#m677ead0a8c" y="371.856582"/>
     <use style="fill:#ff0000;stroke:#ff0000;" x="831.653405" xlink:href="#m677ead0a8c" y="370.581698"/>
     <use style="fill:#ff0000;stroke:#ff0000;" x="841.378694" xlink:href="#m677ead0a8c" y="364.271946"/>
     <use style="fill:#ff0000;stroke:#ff0000;" x="851.103983" xlink:href="#m677ead0a8c" y="352.252932"/>
     <use style="fill:#ff0000;stroke:#ff0000;" x="860.829273" xlink:href="#m677ead0a8c" y="337.092899"/>
     <use style="fill:#ff0000;stroke:#ff0000;" x="870.554562" xlink:href="#m677ead0a8c" y="324.103865"/>
     <use style="fill:#ff0000;stroke:#ff0000;" x="880.279851" xlink:href="#m677ead0a8c" y="311.87237"/>
     <use style="fill:#ff0000;stroke:#ff0000;" x="890.00514" xlink:href="#m677ead0a8c" y="302.541698"/>
     <use style="fill:#ff0000;stroke:#ff0000;" x="899.73043" xlink:href="#m677ead0a8c" y="295.45593"/>
     <use style="fill:#ff0000;stroke:#ff0000;" x="909.455719" xlink:href="#m677ead0a8c" y="293.645225"/>
     <use style="fill:#ff0000;stroke:#ff0000;" x="919.181008" xlink:href="#m677ead0a8c" y="292.259482"/>
     <use style="fill:#ff0000;stroke:#ff0000;" x="928.906298" xlink:href="#m677ead0a8c" y="294.208761"/>
     <use style="fill:#ff0000;stroke:#ff0000;" x="938.631587" xlink:href="#m677ead0a8c" y="296.583001"/>
     <use style="fill:#ff0000;stroke:#ff0000;" x="948.356876" xlink:href="#m677ead0a8c" y="298.393706"/>
     <use style="fill:#ff0000;stroke:#ff0000;" x="958.082165" xlink:href="#m677ead0a8c" y="294.689152"/>
     <use style="fill:#ff0000;stroke:#ff0000;" x="967.807455" xlink:href="#m677ead0a8c" y="284.961233"/>
     <use style="fill:#ff0000;stroke:#ff0000;" x="977.532744" xlink:href="#m677ead0a8c" y="270.771221"/>
     <use style="fill:#ff0000;stroke:#ff0000;" x="987.258033" xlink:href="#m677ead0a8c" y="256.673592"/>
     <use style="fill:#ff0000;stroke:#ff0000;" x="996.983322" xlink:href="#m677ead0a8c" y="241.735278"/>
     <use style="fill:#ff0000;stroke:#ff0000;" x="1006.708612" xlink:href="#m677ead0a8c" y="231.831832"/>
     <use style="fill:#ff0000;stroke:#ff0000;" x="1016.433901" xlink:href="#m677ead0a8c" y="224.127099"/>
     <use style="fill:#ff0000;stroke:#ff0000;" x="1026.15919" xlink:href="#m677ead0a8c" y="219.175376"/>
     <use style="fill:#ff0000;stroke:#ff0000;" x="1035.884479" xlink:href="#m677ead0a8c" y="218.048305"/>
     <use style="fill:#ff0000;stroke:#ff0000;" x="1045.609769" xlink:href="#m677ead0a8c" y="218.094496"/>
     <use style="fill:#ff0000;stroke:#ff0000;" x="1055.335058" xlink:href="#m677ead0a8c" y="220.635026"/>
     <use style="fill:#ff0000;stroke:#ff0000;" x="1065.060347" xlink:href="#m677ead0a8c" y="222.325633"/>
     <use style="fill:#ff0000;stroke:#ff0000;" x="1074.785636" xlink:href="#m677ead0a8c" y="219.434048"/>
     <use style="fill:#ff0000;stroke:#ff0000;" x="1084.510926" xlink:href="#m677ead0a8c" y="209.142594"/>
     <use style="fill:#ff0000;stroke:#ff0000;" x="1094.236215" xlink:href="#m677ead0a8c" y="196.975767"/>
     <use style="fill:#ff0000;stroke:#ff0000;" x="1103.961504" xlink:href="#m677ead0a8c" y="181.159816"/>
     <use style="fill:#ff0000;stroke:#ff0000;" x="1113.686793" xlink:href="#m677ead0a8c" y="168.133828"/>
     <use style="fill:#ff0000;stroke:#ff0000;" x="1123.412083" xlink:href="#m677ead0a8c" y="157.445127"/>
     <use style="fill:#ff0000;stroke:#ff0000;" x="1133.137372" xlink:href="#m677ead0a8c" y="149.54639"/>
     <use style="fill:#ff0000;stroke:#ff0000;" x="1142.862661" xlink:href="#m677ead0a8c" y="145.841836"/>
     <use style="fill:#ff0000;stroke:#ff0000;" x="1152.58795" xlink:href="#m677ead0a8c" y="143.107303"/>
     <use style="fill:#ff0000;stroke:#ff0000;" x="1162.31324" xlink:href="#m677ead0a8c" y="143.772459"/>
     <use style="fill:#ff0000;stroke:#ff0000;" x="1172.038529" xlink:href="#m677ead0a8c" y="146.433087"/>
     <use style="fill:#ff0000;stroke:#ff0000;" x="1181.763818" xlink:href="#m677ead0a8c" y="148.770374"/>
    </g>
   </g>
   <g id="patch_3">
    <path d="M 170.82 772.8048 
L 170.82 104.1984 
" style="fill:none;stroke:#000000;stroke-linecap:square;stroke-linejoin:miter;stroke-width:0.8;"/>
   </g>
   <g id="patch_4">
    <path d="M 1229.904 772.8048 
L 1229.904 104.1984 
" style="fill:none;stroke:#000000;stroke-linecap:square;stroke-linejoin:miter;stroke-width:0.8;"/>
   </g>
   <g id="patch_5">
    <path d="M 170.82 772.8048 
L 1229.904 772.8048 
" style="fill:none;stroke:#000000;stroke-linecap:square;stroke-linejoin:miter;stroke-width:0.8;"/>
   </g>
   <g id="patch_6">
    <path d="M 170.82 104.1984 
L 1229.904 104.1984 
" style="fill:none;stroke:#000000;stroke-linecap:square;stroke-linejoin:miter;stroke-width:0.8;"/>
   </g>
   <g id="text_16">
    <!-- Ramp Comparison -->
    <defs>
     <path d="M 44.390625 34.1875 
Q 47.5625 33.109375 50.5625 29.59375 
Q 53.5625 26.078125 56.59375 19.921875 
L 66.609375 0 
L 56 0 
L 46.6875 18.703125 
Q 43.0625 26.03125 39.671875 28.421875 
Q 36.28125 30.8125 30.421875 30.8125 
L 19.671875 30.8125 
L 19.671875 0 
L 9.8125 0 
L 9.8125 72.90625 
L 32.078125 72.90625 
Q 44.578125 72.90625 50.734375 67.671875 
Q 56.890625 62.453125 56.890625 51.90625 
Q 56.890625 45.015625 53.6875 40.46875 
Q 50.484375 35.9375 44.390625 34.1875 
z
M 19.671875 64.796875 
L 19.671875 38.921875 
L 32.078125 38.921875 
Q 39.203125 38.921875 42.84375 42.21875 
Q 46.484375 45.515625 46.484375 51.90625 
Q 46.484375 58.296875 42.84375 61.546875 
Q 39.203125 64.796875 32.078125 64.796875 
z
" id="DejaVuSans-52"/>
     <path d="M 34.28125 27.484375 
Q 23.390625 27.484375 19.1875 25 
Q 14.984375 22.515625 14.984375 16.5 
Q 14.984375 11.71875 18.140625 8.90625 
Q 21.296875 6.109375 26.703125 6.109375 
Q 34.1875 6.109375 38.703125 11.40625 
Q 43.21875 16.703125 43.21875 25.484375 
L 43.21875 27.484375 
z
M 52.203125 31.203125 
L 52.203125 0 
L 43.21875 0 
L 43.21875 8.296875 
Q 40.140625 3.328125 35.546875 0.953125 
Q 30.953125 -1.421875 24.3125 -1.421875 
Q 15.921875 -1.421875 10.953125 3.296875 
Q 6 8.015625 6 15.921875 
Q 6 25.140625 12.171875 29.828125 
Q 18.359375 34.515625 30.609375 34.515625 
L 43.21875 34.515625 
L 43.21875 35.40625 
Q 43.21875 41.609375 39.140625 45 
Q 35.0625 48.390625 27.6875 48.390625 
Q 23 48.390625 18.546875 47.265625 
Q 14.109375 46.140625 10.015625 43.890625 
L 10.015625 52.203125 
Q 14.9375 54.109375 19.578125 55.046875 
Q 24.21875 56 28.609375 56 
Q 40.484375 56 46.34375 49.84375 
Q 52.203125 43.703125 52.203125 31.203125 
z
" id="DejaVuSans-61"/>
     <path d="M 52 44.1875 
Q 55.375 50.25 60.0625 53.125 
Q 64.75 56 71.09375 56 
Q 79.640625 56 84.28125 50.015625 
Q 88.921875 44.046875 88.921875 33.015625 
L 88.921875 0 
L 79.890625 0 
L 79.890625 32.71875 
Q 79.890625 40.578125 77.09375 44.375 
Q 74.3125 48.1875 68.609375 48.1875 
Q 61.625 48.1875 57.5625 43.546875 
Q 53.515625 38.921875 53.515625 30.90625 
L 53.515625 0 
L 44.484375 0 
L 44.484375 32.71875 
Q 44.484375 40.625 41.703125 44.40625 
Q 38.921875 48.1875 33.109375 48.1875 
Q 26.21875 48.1875 22.15625 43.53125 
Q 18.109375 38.875 18.109375 30.90625 
L 18.109375 0 
L 9.078125 0 
L 9.078125 54.6875 
L 18.109375 54.6875 
L 18.109375 46.1875 
Q 21.1875 51.21875 25.484375 53.609375 
Q 29.78125 56 35.6875 56 
Q 41.65625 56 45.828125 52.96875 
Q 50 49.953125 52 44.1875 
z
" id="DejaVuSans-6d"/>
    </defs>
    <g transform="translate(589.705125 93.20715)scale(0.24 -0.24)">
     <use xlink:href="#DejaVuSans-52"/>
     <use x="69.451172" xlink:href="#DejaVuSans-61"/>
     <use x="130.730469" xlink:href="#DejaVuSans-6d"/>
     <use x="228.142578" xlink:href="#DejaVuSans-70"/>
     <use x="291.619141" xlink:href="#DejaVuSans-20"/>
     <use x="323.40625" xlink:href="#DejaVuSans-43"/>
     <use x="393.230469" xlink:href="#DejaVuSans-6f"/>
     <use x="454.412109" xlink:href="#DejaVuSans-6d"/>
     <use x="551.824219" xlink:href="#DejaVuSans-70"/>
     <use x="615.300781" xlink:href="#DejaVuSans-61"/>
     <use x="676.580078" xlink:href="#DejaVuSans-72"/>
     <use x="717.693359" xlink:href="#DejaVuSans-69"/>
     <use x="745.476562" xlink:href="#DejaVuSans-73"/>
     <use x="797.576172" xlink:href="#DejaVuSans-6f"/>
     <use x="858.757812" xlink:href="#DejaVuSans-6e"/>
    </g>
   </g>
   <g id="legend_1">
    <g id="patch_7">
     <path d="M 183.42 171.43965 
L 320.41125 171.43965 
Q 324.01125 171.43965 324.01125 167.83965 
L 324.01125 116.7984 
Q 324.01125 113.1984 320.41125 113.1984 
L 183.42 113.1984 
Q 179.82 113.1984 179.82 116.7984 
L 179.82 167.83965 
Q 179.82 171.43965 183.42 171.43965 
z
" style="fill:#ffffff;opacity:0.8;stroke:#cccccc;stroke-linejoin:miter;"/>
    </g>
    <g id="line2d_29">
     <path d="M 187.02 127.775587 
L 223.02 127.775587 
" style="fill:none;stroke:#0000ff;stroke-linecap:square;stroke-width:1.5;"/>
    </g>
    <g id="line2d_30">
     <g>
      <use style="fill:#0000ff;stroke:#0000ff;" x="205.02" xlink:href="#m9c187ab521" y="127.775587"/>
     </g>
    </g>
    <g id="text_17">
     <!-- 4000 pts -->
     <g transform="translate(237.42 134.075587)scale(0.18 -0.18)">
      <use xlink:href="#DejaVuSans-34"/>
      <use x="63.623047" xlink:href="#DejaVuSans-30"/>
      <use x="127.246094" xlink:href="#DejaVuSans-30"/>
      <use x="190.869141" xlink:href="#DejaVuSans-30"/>
      <use x="254.492188" xlink:href="#DejaVuSans-20"/>
      <use x="286.279297" xlink:href="#DejaVuSans-70"/>
      <use x="349.755859" xlink:href="#DejaVuSans-74"/>
      <use x="388.964844" xlink:href="#DejaVuSans-73"/>
     </g>
    </g>
    <g id="line2d_31">
     <path d="M 187.02 154.196212 
L 223.02 154.196212 
" style="fill:none;stroke:#ff0000;stroke-linecap:square;stroke-width:1.5;"/>
    </g>
    <g id="line2d_32">
     <g>
      <use style="fill:#ff0000;stroke:#ff0000;" x="205.02" xlink:href="#m677ead0a8c" y="154.196212"/>
     </g>
    </g>
    <g id="text_18">
     <!-- 2000 pts -->
     <g transform="translate(237.42 160.496212)scale(0.18 -0.18)">
      <use xlink:href="#DejaVuSans-32"/>
      <use x="63.623047" xlink:href="#DejaVuSans-30"/>
      <use x="127.246094" xlink:href="#DejaVuSans-30"/>
      <use x="190.869141" xlink:href="#DejaVuSans-30"/>
      <use x="254.492188" xlink:href="#DejaVuSans-20"/>
      <use x="286.279297" xlink:href="#DejaVuSans-70"/>
      <use x="349.755859" xlink:href="#DejaVuSans-74"/>
      <use x="388.964844" xlink:href="#DejaVuSans-73"/>
     </g>
    </g>
   </g>
  </g>
 </g>
 <defs>
  <clipPath id="p54fed019a9">
   <rect height="668.6064" width="1059.084" x="170.82" y="104.1984"/>
  </clipPath>
 </defs>
</svg>
